<svg width="940" height="432" viewBox="0 0 940 432" fill="none" xmlns="http://www.w3.org/2000/svg">
<g clip-path="url(#clip0_201_3)">
<rect width="940" height="432" fill="url(#paint0_linear_201_3)"/>
<path d="M413.829 216.654C408.318 216.625 402.864 217.766 397.826 220.002C392.789 222.237 388.283 225.515 384.606 229.62L382.369 228.745C367.298 222.802 351.753 218.139 335.9 214.806C335.604 194.334 327.265 174.801 312.684 160.429C298.103 146.057 278.452 138 257.978 138C237.504 138 217.853 146.057 203.272 160.429C188.691 174.801 180.352 194.334 180.057 214.806H177.917C162.635 218.097 147.647 222.629 133.101 228.356L130.864 229.231C124.505 222.2 115.801 217.728 106.383 216.654C96.9636 215.579 87.476 217.975 79.6967 223.393C71.9173 228.81 66.38 236.878 64.1218 246.086C61.8636 255.293 63.0395 265.007 67.4292 273.41C71.8189 281.812 79.1212 288.326 87.9685 291.731C96.8158 295.137 106.601 295.2 115.492 291.909C124.382 288.618 131.768 282.199 136.265 273.853C140.763 265.508 142.064 255.81 139.925 246.574C153.49 241.257 167.464 237.051 181.71 233.996C185.754 251.068 195.441 266.276 209.203 277.159C222.965 288.041 239.996 293.961 257.54 293.961C275.085 293.961 292.116 288.041 305.878 277.159C319.64 266.276 329.327 251.068 333.371 233.996C347.615 237.016 361.589 241.19 375.156 246.477C373.266 254.318 373.855 262.552 376.843 270.044C379.83 277.536 385.069 283.916 391.837 288.304C398.605 292.692 406.567 294.872 414.626 294.543C422.685 294.213 430.443 291.391 436.83 286.466C443.217 281.54 447.918 274.754 450.285 267.044C452.652 259.333 452.567 251.078 450.043 243.417C447.519 235.757 442.68 229.068 436.194 224.274C429.707 219.481 421.893 216.818 413.829 216.654V216.654ZM102.127 275.101C98.2736 275.101 94.5069 273.958 91.303 271.817C88.0992 269.677 85.6021 266.634 84.1275 263.074C82.6529 259.514 82.2671 255.597 83.0188 251.818C83.7705 248.038 85.6261 244.567 88.3507 241.842C91.0754 239.118 94.5468 237.262 98.326 236.51C102.105 235.759 106.023 236.144 109.582 237.619C113.142 239.094 116.185 241.591 118.326 244.795C120.467 247.998 121.609 251.765 121.609 255.618C121.609 260.785 119.557 265.741 115.903 269.395C112.249 273.048 107.294 275.101 102.127 275.101ZM257.986 275.101C246.426 275.104 235.124 271.679 225.51 265.259C215.896 258.838 208.403 249.711 203.976 239.032C199.55 228.352 198.39 216.6 200.644 205.261C202.897 193.922 208.462 183.506 216.636 175.331C224.809 167.155 235.223 161.587 246.561 159.331C257.9 157.074 269.652 158.231 280.333 162.654C291.014 167.077 300.143 174.568 306.566 184.18C312.989 193.792 316.417 205.093 316.417 216.654C316.417 232.152 310.262 247.016 299.304 257.976C288.347 268.937 273.484 275.097 257.986 275.101V275.101ZM413.829 275.101C409.976 275.101 406.209 273.958 403.005 271.817C399.801 269.677 397.304 266.634 395.83 263.074C394.355 259.514 393.969 255.597 394.721 251.818C395.473 248.038 397.328 244.567 400.053 241.842C402.778 239.118 406.249 237.262 410.028 236.51C413.808 235.759 417.725 236.144 421.285 237.619C424.845 239.094 427.887 241.591 430.028 244.795C432.169 247.998 433.312 251.765 433.312 255.618C433.312 260.785 431.259 265.741 427.605 269.395C423.952 273.048 418.996 275.101 413.829 275.101V275.101ZM287.21 216.654C287.21 222.433 285.496 228.084 282.285 232.889C279.074 237.695 274.509 241.441 269.17 243.653C263.83 245.865 257.954 246.443 252.285 245.316C246.616 244.188 241.409 241.405 237.322 237.318C233.235 233.231 230.452 228.024 229.324 222.355C228.196 216.686 228.775 210.81 230.987 205.47C233.199 200.13 236.945 195.566 241.75 192.355C246.556 189.144 252.206 187.43 257.986 187.43C265.737 187.43 273.17 190.509 278.65 195.989C284.131 201.47 287.21 208.903 287.21 216.654V216.654Z" fill="#1E7F82"/>
<path d="M50.056 230.23V184.79H59.336V221.398H78.792V230.23H50.056ZM88.576 192.982C87.0827 192.982 85.7813 192.448 84.672 191.382C83.5627 190.272 83.008 188.95 83.008 187.414C83.008 185.878 83.5627 184.576 84.672 183.51C85.7813 182.4 87.0827 181.846 88.576 181.846C90.1547 181.846 91.4773 182.4 92.544 183.51C93.6533 184.576 94.208 185.878 94.208 187.414C94.208 188.95 93.6533 190.272 92.544 191.382C91.4773 192.448 90.1547 192.982 88.576 192.982ZM84.224 230.23V198.23H92.992V230.23H84.224ZM101.411 230.23V198.23H110.18V201.878C112.142 198.976 115.193 197.526 119.332 197.526C123.172 197.526 126.18 198.806 128.356 201.366C130.574 203.883 131.684 207.254 131.684 211.478V230.23H122.916V212.95C122.916 210.603 122.425 208.79 121.444 207.51C120.462 206.187 119.076 205.526 117.284 205.526C115.15 205.526 113.422 206.294 112.1 207.83C110.82 209.366 110.18 211.627 110.18 214.614V230.23H101.411ZM154.444 230.934C149.537 230.934 145.505 229.355 142.348 226.198C139.233 223.04 137.676 219.03 137.676 214.166C137.676 209.387 139.255 205.419 142.412 202.262C145.612 199.104 149.644 197.526 154.508 197.526C159.415 197.526 163.489 199.211 166.732 202.582C169.975 205.91 171.468 210.475 171.212 216.278H146.252C146.423 218.283 147.255 219.968 148.748 221.334C150.241 222.656 152.289 223.318 154.892 223.318C156.471 223.318 157.857 223.019 159.052 222.422C160.289 221.782 161.164 220.907 161.676 219.798H170.828C169.889 223.083 167.927 225.771 164.94 227.862C161.953 229.91 158.455 230.934 154.444 230.934ZM154.252 204.63C152.247 204.63 150.561 205.163 149.196 206.23C147.873 207.254 146.999 208.683 146.572 210.518H161.612C161.143 208.512 160.204 207.04 158.796 206.102C157.431 205.12 155.916 204.63 154.252 204.63ZM190.591 230.934C186.367 230.934 182.804 229.291 179.903 226.006C177.002 222.72 175.551 218.795 175.551 214.23C175.551 209.664 177.002 205.739 179.903 202.454C182.804 199.168 186.367 197.526 190.591 197.526C192.639 197.526 194.474 197.952 196.095 198.806C197.716 199.659 198.954 200.662 199.807 201.814V198.23H208.575V230.23H199.807V226.646C198.954 227.798 197.716 228.8 196.095 229.654C194.474 230.507 192.639 230.934 190.591 230.934ZM186.559 220.502C188.052 222.123 190.015 222.934 192.447 222.934C194.879 222.934 196.82 222.123 198.271 220.502C199.764 218.88 200.511 216.79 200.511 214.23C200.511 211.67 199.764 209.579 198.271 207.958C196.82 206.336 194.879 205.526 192.447 205.526C190.015 205.526 188.052 206.336 186.559 207.958C185.108 209.579 184.383 211.67 184.383 214.23C184.383 216.79 185.108 218.88 186.559 220.502ZM232.011 244.246C227.574 244.246 223.947 243.115 221.131 240.854C218.315 238.592 216.736 235.712 216.395 232.214H224.971C226.08 235.371 228.491 236.95 232.203 236.95C234.251 236.95 235.958 236.288 237.323 234.966C238.731 233.643 239.435 231.787 239.435 229.398V225.622C238.539 226.859 237.259 227.883 235.595 228.694C233.931 229.462 232.118 229.846 230.155 229.846C225.974 229.846 222.411 228.288 219.467 225.174C216.523 222.016 215.051 218.198 215.051 213.718C215.051 209.195 216.523 205.376 219.467 202.262C222.411 199.104 225.974 197.526 230.155 197.526C232.16 197.526 233.974 197.931 235.595 198.742C237.259 199.51 238.539 200.534 239.435 201.814V198.23H248.203V228.246C248.203 233.664 246.646 237.675 243.531 240.278C240.459 242.923 236.619 244.246 232.011 244.246ZM226.251 219.606C227.83 221.142 229.75 221.91 232.011 221.91C234.272 221.91 236.192 221.142 237.771 219.606C239.35 218.07 240.139 216.107 240.139 213.718C240.139 211.328 239.35 209.366 237.771 207.83C236.192 206.294 234.272 205.526 232.011 205.526C229.75 205.526 227.83 206.294 226.251 207.83C224.672 209.366 223.883 211.328 223.883 213.718C223.883 216.107 224.672 218.07 226.251 219.606ZM271.382 230.934C266.475 230.934 262.443 229.355 259.286 226.198C256.171 223.04 254.614 219.03 254.614 214.166C254.614 209.387 256.192 205.419 259.35 202.262C262.55 199.104 266.582 197.526 271.446 197.526C276.352 197.526 280.427 199.211 283.67 202.582C286.912 205.91 288.406 210.475 288.15 216.278H263.19C263.36 218.283 264.192 219.968 265.686 221.334C267.179 222.656 269.227 223.318 271.83 223.318C273.408 223.318 274.795 223.019 275.99 222.422C277.227 221.782 278.102 220.907 278.614 219.798H287.766C286.827 223.083 284.864 225.771 281.878 227.862C278.891 229.91 275.392 230.934 271.382 230.934ZM271.19 204.63C269.184 204.63 267.499 205.163 266.134 206.23C264.811 207.254 263.936 208.683 263.51 210.518H278.55C278.08 208.512 277.142 207.04 275.734 206.102C274.368 205.12 272.854 204.63 271.19 204.63ZM313.451 192.982C311.958 192.982 310.656 192.448 309.547 191.382C308.438 190.272 307.883 188.95 307.883 187.414C307.883 185.878 308.438 184.576 309.547 183.51C310.656 182.4 311.958 181.846 313.451 181.846C315.03 181.846 316.352 182.4 317.419 183.51C318.528 184.576 319.083 185.878 319.083 187.414C319.083 188.95 318.528 190.272 317.419 191.382C316.352 192.448 315.03 192.982 313.451 192.982ZM309.099 230.23V198.23H317.867V230.23H309.099ZM341.071 230.934C336.249 230.934 332.239 229.334 329.039 226.134C325.839 222.891 324.239 218.923 324.239 214.23C324.239 209.536 325.839 205.59 329.039 202.39C332.239 199.147 336.249 197.526 341.071 197.526C345.337 197.526 348.9 198.72 351.759 201.11C354.66 203.499 356.559 206.614 357.455 210.454H348.367C346.959 207.126 344.527 205.462 341.071 205.462C338.724 205.462 336.804 206.272 335.311 207.894C333.817 209.472 333.071 211.584 333.071 214.23C333.071 216.875 333.817 219.008 335.311 220.63C336.804 222.208 338.724 222.998 341.071 222.998C344.527 222.998 346.959 221.334 348.367 218.006H357.455C356.559 221.846 354.66 224.96 351.759 227.35C348.9 229.739 345.337 230.934 341.071 230.934ZM390.036 226.134C386.75 229.334 382.782 230.934 378.132 230.934C373.481 230.934 369.513 229.334 366.228 226.134C362.942 222.891 361.299 218.923 361.299 214.23C361.299 209.579 362.942 205.632 366.228 202.39C369.513 199.147 373.481 197.526 378.132 197.526C382.782 197.526 386.75 199.147 390.036 202.39C393.321 205.632 394.964 209.579 394.964 214.23C394.964 218.923 393.321 222.891 390.036 226.134ZM378.132 222.742C380.393 222.742 382.27 221.952 383.764 220.374C385.3 218.752 386.068 216.704 386.068 214.23C386.068 211.755 385.3 209.728 383.764 208.15C382.27 206.528 380.393 205.718 378.132 205.718C375.828 205.718 373.908 206.528 372.372 208.15C370.878 209.728 370.132 211.755 370.132 214.23C370.132 216.704 370.878 218.752 372.372 220.374C373.908 221.952 375.828 222.742 378.132 222.742ZM401.286 230.23V198.23H410.055V201.878C412.017 198.976 415.068 197.526 419.207 197.526C423.047 197.526 426.055 198.806 428.231 201.366C430.449 203.883 431.559 207.254 431.559 211.478V230.23H422.791V212.95C422.791 210.603 422.3 208.79 421.319 207.51C420.337 206.187 418.951 205.526 417.159 205.526C415.025 205.526 413.297 206.294 411.975 207.83C410.695 209.366 410.055 211.627 410.055 214.614V230.23H401.286ZM451.951 230.934C447.855 230.934 444.463 229.91 441.775 227.862C439.087 225.814 437.658 223.211 437.487 220.054H446.639C446.81 221.419 447.407 222.464 448.431 223.19C449.455 223.872 450.714 224.214 452.207 224.214C454.98 224.214 456.367 223.36 456.367 221.654C456.367 220.8 456.047 220.16 455.407 219.734C454.81 219.264 453.786 218.838 452.335 218.454L446.319 216.918C443.588 216.192 441.54 214.976 440.175 213.27C438.852 211.52 438.191 209.43 438.191 206.998C438.191 204.224 439.343 201.963 441.647 200.214C443.994 198.422 447.13 197.526 451.055 197.526C454.639 197.526 457.626 198.443 460.015 200.278C462.404 202.07 463.727 204.523 463.983 207.638H455.151C454.767 205.462 453.359 204.374 450.927 204.374C449.775 204.374 448.858 204.587 448.175 205.014C447.492 205.44 447.151 206.038 447.151 206.806C447.151 208.214 448.367 209.195 450.799 209.75L456.431 211.286C459.546 212.054 461.807 213.27 463.215 214.934C464.623 216.555 465.327 218.646 465.327 221.206C465.327 224.15 464.068 226.518 461.551 228.31C459.076 230.059 455.876 230.934 451.951 230.934Z" fill="white"/>
<g filter="url(#filter0_dddddd_201_3)">
<path d="M995 332.5C995 445.442 903.442 537 790.5 537C677.558 537 586 445.442 586 332.5C586 219.558 677.558 128 790.5 128C903.442 128 995 219.558 995 332.5Z" fill="#7ED0D3"/>
</g>
<path d="M989 335.5C989 446.785 898.785 537 787.5 537C676.215 537 586 446.785 586 335.5C586 224.215 676.215 134 787.5 134C898.785 134 989 224.215 989 335.5Z" fill="#58BABC"/>
<g filter="url(#filter1_dddddd_201_3)">
<path d="M738 165.5C738 227.08 688.08 277 626.5 277C564.92 277 515 227.08 515 165.5C515 103.92 564.92 54 626.5 54C688.08 54 738 103.92 738 165.5Z" fill="#E4E6EA"/>
</g>
<path d="M737 168C737 228.199 687.975 277 627.5 277C567.025 277 518 228.199 518 168C518 107.801 567.025 59 627.5 59C687.975 59 737 107.801 737 168Z" fill="white"/>
<path d="M167.392 273V261.64H169.264V271.208H174.464V273H167.392ZM176.173 273V261.64H178.045V273H176.173ZM190.734 273H189.102L182.702 264.824V273H180.83V261.64H182.462L188.845 269.8V261.64H190.734V273ZM193.517 273V261.64H200.349V263.432H195.389V266.344H199.389V268.136H195.389V271.208H200.349V273H193.517ZM201.173 273L206.133 261.64H207.765L212.725 273H210.773L209.477 270.024H204.389L203.109 273H201.173ZM206.933 264.168L205.109 268.36H208.757L206.933 264.168ZM218.999 273.192C217.303 273.192 215.889 272.632 214.759 271.512C213.628 270.381 213.063 268.984 213.063 267.32C213.063 265.656 213.623 264.264 214.743 263.144C215.873 262.013 217.287 261.448 218.983 261.448C220.231 261.448 221.345 261.784 222.327 262.456C223.308 263.128 223.985 263.976 224.359 265H222.231C221.932 264.477 221.489 264.056 220.903 263.736C220.327 263.416 219.687 263.256 218.983 263.256C217.809 263.256 216.844 263.645 216.087 264.424C215.329 265.203 214.951 266.168 214.951 267.32C214.951 268.472 215.329 269.437 216.087 270.216C216.844 270.995 217.815 271.384 218.999 271.384C220.033 271.384 220.881 271.085 221.543 270.488C222.204 269.891 222.599 269.101 222.727 268.12H218.839V266.36H224.647C224.849 268.472 224.396 270.141 223.287 271.368C222.188 272.584 220.759 273.192 218.999 273.192ZM226.751 273V261.64H233.583V263.432H228.623V266.344H232.623V268.136H228.623V271.208H233.583V273H226.751ZM240.591 271.384C241.7 271.384 242.639 270.989 243.407 270.2C244.175 269.411 244.559 268.451 244.559 267.32C244.559 266.189 244.175 265.229 243.407 264.44C242.639 263.651 241.7 263.256 240.591 263.256C239.471 263.256 238.527 263.651 237.759 264.44C236.991 265.229 236.607 266.189 236.607 267.32C236.607 268.451 236.991 269.411 237.759 270.2C238.527 270.989 239.471 271.384 240.591 271.384ZM244.751 271.48C243.61 272.621 242.223 273.192 240.591 273.192C238.959 273.192 237.572 272.627 236.431 271.496C235.29 270.355 234.719 268.963 234.719 267.32C234.719 265.677 235.29 264.291 236.431 263.16C237.572 262.019 238.959 261.448 240.591 261.448C242.223 261.448 243.61 262.019 244.751 263.16C245.892 264.301 246.463 265.688 246.463 267.32C246.463 268.952 245.892 270.339 244.751 271.48ZM251.893 273.192C250.677 273.192 249.69 272.856 248.933 272.184C248.186 271.501 247.792 270.685 247.749 269.736H249.621C249.685 270.28 249.936 270.701 250.373 271C250.821 271.299 251.322 271.448 251.877 271.448C252.432 271.448 252.885 271.32 253.237 271.064C253.6 270.797 253.781 270.445 253.781 270.008C253.781 269.24 253.258 268.685 252.213 268.344L250.821 267.88C248.965 267.293 248.037 266.2 248.037 264.6C248.037 263.629 248.368 262.861 249.029 262.296C249.701 261.731 250.576 261.448 251.653 261.448C252.773 261.448 253.664 261.773 254.325 262.424C254.986 263.064 255.354 263.821 255.429 264.696H253.557C253.44 264.195 253.2 263.821 252.837 263.576C252.474 263.32 252.069 263.192 251.621 263.192C251.13 263.192 250.725 263.315 250.405 263.56C250.085 263.795 249.92 264.109 249.909 264.504C249.909 264.909 250.032 265.24 250.277 265.496C250.522 265.741 250.912 265.949 251.445 266.12L252.853 266.568C254.73 267.176 255.669 268.301 255.669 269.944C255.669 270.904 255.317 271.688 254.613 272.296C253.92 272.893 253.013 273.192 251.893 273.192ZM261.517 273V261.64H263.389V273H261.517ZM271.373 273.192C269.677 273.192 268.264 272.632 267.133 271.512C266.013 270.381 265.453 268.984 265.453 267.32C265.453 265.656 266.013 264.264 267.133 263.144C268.264 262.013 269.677 261.448 271.373 261.448C272.717 261.448 273.891 261.832 274.893 262.6C275.907 263.357 276.557 264.307 276.845 265.448H274.829C274.584 264.797 274.147 264.269 273.517 263.864C272.888 263.459 272.173 263.256 271.373 263.256C270.2 263.256 269.235 263.645 268.477 264.424C267.72 265.203 267.341 266.168 267.341 267.32C267.341 268.472 267.72 269.437 268.477 270.216C269.235 270.995 270.2 271.384 271.373 271.384C272.173 271.384 272.888 271.181 273.517 270.776C274.147 270.371 274.584 269.843 274.829 269.192H276.845C276.557 270.333 275.907 271.288 274.893 272.056C273.891 272.813 272.717 273.192 271.373 273.192ZM283.888 271.384C284.997 271.384 285.936 270.989 286.704 270.2C287.472 269.411 287.856 268.451 287.856 267.32C287.856 266.189 287.472 265.229 286.704 264.44C285.936 263.651 284.997 263.256 283.888 263.256C282.768 263.256 281.824 263.651 281.056 264.44C280.288 265.229 279.904 266.189 279.904 267.32C279.904 268.451 280.288 269.411 281.056 270.2C281.824 270.989 282.768 271.384 283.888 271.384ZM288.048 271.48C286.906 272.621 285.52 273.192 283.888 273.192C282.256 273.192 280.869 272.627 279.728 271.496C278.586 270.355 278.016 268.963 278.016 267.32C278.016 265.677 278.586 264.291 279.728 263.16C280.869 262.019 282.256 261.448 283.888 261.448C285.52 261.448 286.906 262.019 288.048 263.16C289.189 264.301 289.76 265.688 289.76 267.32C289.76 268.952 289.189 270.339 288.048 271.48ZM301.718 273H300.086L293.686 264.824V273H291.814V261.64H293.446L299.83 269.8V261.64H301.718V273ZM314.715 262.712C315.451 263.416 315.819 264.296 315.819 265.352C315.819 266.408 315.451 267.293 314.715 268.008C313.979 268.712 313.035 269.064 311.883 269.064H310.139V273H308.267V261.64H311.883C313.035 261.64 313.979 261.997 314.715 262.712ZM313.403 266.76C313.787 266.387 313.979 265.917 313.979 265.352C313.979 264.787 313.787 264.323 313.403 263.96C313.03 263.587 312.518 263.4 311.867 263.4H310.139V267.304H311.867C312.518 267.304 313.03 267.123 313.403 266.76ZM315.72 273L320.68 261.64H322.312L327.272 273H325.32L324.024 270.024H318.936L317.656 273H315.72ZM321.48 264.168L319.656 268.36H323.304L321.48 264.168ZM333.53 273.192C331.834 273.192 330.42 272.632 329.289 271.512C328.17 270.381 327.61 268.984 327.61 267.32C327.61 265.656 328.17 264.264 329.289 263.144C330.42 262.013 331.834 261.448 333.53 261.448C334.874 261.448 336.047 261.832 337.05 262.6C338.063 263.357 338.714 264.307 339.002 265.448H336.986C336.74 264.797 336.303 264.269 335.674 263.864C335.044 263.459 334.33 263.256 333.53 263.256C332.356 263.256 331.391 263.645 330.634 264.424C329.876 265.203 329.498 266.168 329.498 267.32C329.498 268.472 329.876 269.437 330.634 270.216C331.391 270.995 332.356 271.384 333.53 271.384C334.33 271.384 335.044 271.181 335.674 270.776C336.303 270.371 336.74 269.843 336.986 269.192H339.002C338.714 270.333 338.063 271.288 337.05 272.056C336.047 272.813 334.874 273.192 333.53 273.192ZM348.268 273L342.748 267.688V273H340.892V261.64H342.748V266.536L347.308 261.64H349.676L344.62 267.08L350.796 273H348.268Z" fill="white"/>
</g>
<defs>
<filter id="filter0_dddddd_201_3" x="506" y="126.704" width="569" height="590.296" filterUnits="userSpaceOnUse" color-interpolation-filters="sRGB">
<feFlood flood-opacity="0" result="BackgroundImageFix"/>
<feColorMatrix in="SourceAlpha" type="matrix" values="0 0 0 0 0 0 0 0 0 0 0 0 0 0 0 0 0 0 127 0" result="hardAlpha"/>
<feOffset dy="1.85185"/>
<feGaussianBlur stdDeviation="1.57407"/>
<feColorMatrix type="matrix" values="0 0 0 0 0 0 0 0 0 0 0 0 0 0 0 0 0 0 0.0168519 0"/>
<feBlend mode="normal" in2="BackgroundImageFix" result="effect1_dropShadow_201_3"/>
<feColorMatrix in="SourceAlpha" type="matrix" values="0 0 0 0 0 0 0 0 0 0 0 0 0 0 0 0 0 0 127 0" result="hardAlpha"/>
<feOffset dy="8.14815"/>
<feGaussianBlur stdDeviation="3.25926"/>
<feColorMatrix type="matrix" values="0 0 0 0 0 0 0 0 0 0 0 0 0 0 0 0 0 0 0.0274815 0"/>
<feBlend mode="normal" in2="effect1_dropShadow_201_3" result="effect2_dropShadow_201_3"/>
<feColorMatrix in="SourceAlpha" type="matrix" values="0 0 0 0 0 0 0 0 0 0 0 0 0 0 0 0 0 0 127 0" result="hardAlpha"/>
<feOffset dy="20"/>
<feGaussianBlur stdDeviation="6.5"/>
<feColorMatrix type="matrix" values="0 0 0 0 0 0 0 0 0 0 0 0 0 0 0 0 0 0 0.035 0"/>
<feBlend mode="normal" in2="effect2_dropShadow_201_3" result="effect3_dropShadow_201_3"/>
<feColorMatrix in="SourceAlpha" type="matrix" values="0 0 0 0 0 0 0 0 0 0 0 0 0 0 0 0 0 0 127 0" result="hardAlpha"/>
<feOffset dy="38.5185"/>
<feGaussianBlur stdDeviation="12.7407"/>
<feColorMatrix type="matrix" values="0 0 0 0 0 0 0 0 0 0 0 0 0 0 0 0 0 0 0.0425185 0"/>
<feBlend mode="normal" in2="effect3_dropShadow_201_3" result="effect4_dropShadow_201_3"/>
<feColorMatrix in="SourceAlpha" type="matrix" values="0 0 0 0 0 0 0 0 0 0 0 0 0 0 0 0 0 0 127 0" result="hardAlpha"/>
<feOffset dy="64.8148"/>
<feGaussianBlur stdDeviation="23.4259"/>
<feColorMatrix type="matrix" values="0 0 0 0 0 0 0 0 0 0 0 0 0 0 0 0 0 0 0.0531481 0"/>
<feBlend mode="normal" in2="effect4_dropShadow_201_3" result="effect5_dropShadow_201_3"/>
<feColorMatrix in="SourceAlpha" type="matrix" values="0 0 0 0 0 0 0 0 0 0 0 0 0 0 0 0 0 0 127 0" result="hardAlpha"/>
<feOffset dy="100"/>
<feGaussianBlur stdDeviation="40"/>
<feColorMatrix type="matrix" values="0 0 0 0 0 0 0 0 0 0 0 0 0 0 0 0 0 0 0.07 0"/>
<feBlend mode="normal" in2="effect5_dropShadow_201_3" result="effect6_dropShadow_201_3"/>
<feBlend mode="normal" in="SourceGraphic" in2="effect6_dropShadow_201_3" result="shape"/>
</filter>
<filter id="filter1_dddddd_201_3" x="455" y="35" width="343" height="343" filterUnits="userSpaceOnUse" color-interpolation-filters="sRGB">
<feFlood flood-opacity="0" result="BackgroundImageFix"/>
<feColorMatrix in="SourceAlpha" type="matrix" values="0 0 0 0 0 0 0 0 0 0 0 0 0 0 0 0 0 0 127 0" result="hardAlpha"/>
<feOffset dy="0.759259"/>
<feGaussianBlur stdDeviation="1.18056"/>
<feColorMatrix type="matrix" values="0 0 0 0 0 0 0 0 0 0 0 0 0 0 0 0 0 0 0.0240741 0"/>
<feBlend mode="normal" in2="BackgroundImageFix" result="effect1_dropShadow_201_3"/>
<feColorMatrix in="SourceAlpha" type="matrix" values="0 0 0 0 0 0 0 0 0 0 0 0 0 0 0 0 0 0 127 0" result="hardAlpha"/>
<feOffset dy="3.34074"/>
<feGaussianBlur stdDeviation="2.44444"/>
<feColorMatrix type="matrix" values="0 0 0 0 0 0 0 0 0 0 0 0 0 0 0 0 0 0 0.0392593 0"/>
<feBlend mode="normal" in2="effect1_dropShadow_201_3" result="effect2_dropShadow_201_3"/>
<feColorMatrix in="SourceAlpha" type="matrix" values="0 0 0 0 0 0 0 0 0 0 0 0 0 0 0 0 0 0 127 0" result="hardAlpha"/>
<feOffset dy="8.2"/>
<feGaussianBlur stdDeviation="4.875"/>
<feColorMatrix type="matrix" values="0 0 0 0 0 0 0 0 0 0 0 0 0 0 0 0 0 0 0.05 0"/>
<feBlend mode="normal" in2="effect2_dropShadow_201_3" result="effect3_dropShadow_201_3"/>
<feColorMatrix in="SourceAlpha" type="matrix" values="0 0 0 0 0 0 0 0 0 0 0 0 0 0 0 0 0 0 127 0" result="hardAlpha"/>
<feOffset dy="15.7926"/>
<feGaussianBlur stdDeviation="9.55556"/>
<feColorMatrix type="matrix" values="0 0 0 0 0 0 0 0 0 0 0 0 0 0 0 0 0 0 0.0607407 0"/>
<feBlend mode="normal" in2="effect3_dropShadow_201_3" result="effect4_dropShadow_201_3"/>
<feColorMatrix in="SourceAlpha" type="matrix" values="0 0 0 0 0 0 0 0 0 0 0 0 0 0 0 0 0 0 127 0" result="hardAlpha"/>
<feOffset dy="26.5741"/>
<feGaussianBlur stdDeviation="17.5694"/>
<feColorMatrix type="matrix" values="0 0 0 0 0 0 0 0 0 0 0 0 0 0 0 0 0 0 0.0759259 0"/>
<feBlend mode="normal" in2="effect4_dropShadow_201_3" result="effect5_dropShadow_201_3"/>
<feColorMatrix in="SourceAlpha" type="matrix" values="0 0 0 0 0 0 0 0 0 0 0 0 0 0 0 0 0 0 127 0" result="hardAlpha"/>
<feOffset dy="41"/>
<feGaussianBlur stdDeviation="30"/>
<feColorMatrix type="matrix" values="0 0 0 0 0 0 0 0 0 0 0 0 0 0 0 0 0 0 0.1 0"/>
<feBlend mode="normal" in2="effect5_dropShadow_201_3" result="effect6_dropShadow_201_3"/>
<feBlend mode="normal" in="SourceGraphic" in2="effect6_dropShadow_201_3" result="shape"/>
</filter>
<linearGradient id="paint0_linear_201_3" x1="470" y1="0" x2="470" y2="432" gradientUnits="userSpaceOnUse">
<stop stop-color="#3A9396"/>
<stop offset="1" stop-color="#1A878A"/>
</linearGradient>
<clipPath id="clip0_201_3">
<rect width="940" height="432" fill="white"/>
</clipPath>
</defs>
</svg>
